<svg width="32" height="32" viewBox="0 0 32 32" fill="none" xmlns="http://www.w3.org/2000/svg">
<path d="M12.1107 7.89255C13.5268 8.58812 14.8324 9.47169 15.9989 10.5034C17.1653 9.47169 18.4721 8.58812 19.8871 7.89255L16 4L12.1107 7.89255ZM16.6594 24.1251V28C20.5343 27.843 24.3618 26.2815 27.3198 23.3157C28.8574 21.7808 30.015 20.0092 30.7938 18.1282C31.5195 16.3699 31.9205 14.5154 32 12.6477H28.1295C28.1074 13.0811 28.0599 13.5091 27.9892 13.9382C27.596 16.3743 26.4649 18.7099 24.5904 20.582C22.3867 22.7904 19.5468 23.9714 16.6594 24.1251ZM15.3395 28V24.1251C12.4509 23.9725 9.61105 22.7915 7.4096 20.582C5.53511 18.7099 4.404 16.3743 4.00635 13.9426C3.93676 13.5135 3.89258 13.0811 3.86607 12.6477H0C0.0740076 14.5154 0.476079 16.3699 1.20621 18.1282C1.98385 20.0092 3.14146 21.7808 4.68015 23.3157C7.63714 26.2815 11.4645 27.843 15.3395 28ZM5.19047 11.3394C6.5447 11.4135 7.83818 11.711 9.03997 12.2009C9.01788 11.4622 9.10956 10.718 9.32385 10.0003C9.48512 9.45842 9.71267 8.92872 10.0098 8.42556C8.77818 7.97549 7.47587 7.66917 6.12164 7.53315C5.57929 8.74626 5.2689 10.0357 5.19047 11.3394ZM10.4295 12.871C11.4082 13.4217 12.304 14.104 13.0949 14.8914C14.3884 16.1863 15.3892 17.7655 16 19.5282C16.6075 17.7655 17.6127 16.1863 18.9051 14.8914C19.6915 14.104 20.5918 13.4173 21.5705 12.871C21.7019 12.0394 21.6445 11.1868 21.4092 10.3774C21.2612 9.87863 21.0425 9.39317 20.7542 8.9431C19.1635 9.68622 17.7132 10.6837 16.4551 11.8824C16.2021 12.1268 15.8001 12.1268 15.546 11.8824C14.2835 10.6837 12.8331 9.68622 11.2469 8.9431C10.9586 9.39317 10.7399 9.87863 10.5919 10.3774C10.35 11.1868 10.2981 12.0394 10.4295 12.871ZM15.314 22.7992C15.1439 20.0922 13.9687 17.6427 12.1549 15.8314C10.3456 14.0167 7.89893 12.8401 5.19489 12.6698C5.21698 13.0236 5.25564 13.3786 5.31308 13.7281C5.66213 15.8933 6.67615 17.9712 8.34518 19.6465C10.2893 21.5884 12.779 22.6422 15.314 22.7992ZM26.804 12.6698C24.1 12.8401 21.6533 14.0167 19.8396 15.8325C18.0302 17.6438 16.8516 20.0933 16.6848 22.8003C19.2188 22.6433 21.7096 21.5884 23.6537 19.6465C25.3227 17.9712 26.3323 15.8933 26.6858 13.7281C26.7432 13.3775 26.7819 13.0236 26.804 12.6698ZM22.96 12.2009C24.1618 11.711 25.4553 11.4135 26.8051 11.3394C26.7311 10.0357 26.4207 8.74515 25.875 7.53426C24.5252 7.67028 23.2229 7.97549 21.9913 8.42667C22.2884 8.92983 22.516 9.45842 22.6773 10.0014C22.8893 10.718 22.981 11.4622 22.96 12.2009Z" fill="#47CD70"/>
</svg>
