<svg width="24" height="24" viewBox="0 0 24 24" fill="none" xmlns="http://www.w3.org/2000/svg">
<path d="M10.7639 1.59472C10.9133 1.40907 11.1023 1.25927 11.3172 1.15635C11.5322 1.05343 11.7674 1 12.0057 1C12.2439 1 12.4792 1.05343 12.6941 1.15635C12.909 1.25927 13.0981 1.40907 13.2474 1.59472L14.7258 3.43391C14.8933 3.64257 15.1106 3.80569 15.3577 3.90823C15.6048 4.01076 15.8737 4.0494 16.1397 4.02058L18.4864 3.76538C18.7239 3.73899 18.9644 3.76637 19.1899 3.84548C19.4154 3.9246 19.6203 4.05343 19.7893 4.22244C19.9583 4.39145 20.0871 4.5963 20.1663 4.82184C20.2454 5.04738 20.2727 5.28782 20.2464 5.52537L19.9912 7.87203C19.9623 8.13801 20.001 8.40696 20.1035 8.65406C20.206 8.90116 20.3692 9.11846 20.5778 9.28589L22.417 10.7643C22.6027 10.9137 22.7525 11.1027 22.8554 11.3176C22.9583 11.5325 23.0117 11.7678 23.0117 12.0061C23.0117 12.2443 22.9583 12.4796 22.8554 12.6945C22.7525 12.9094 22.6027 13.0985 22.417 13.2478L20.572 14.7194C20.3634 14.8871 20.2003 15.1046 20.0978 15.3518C19.9953 15.5991 19.9566 15.8681 19.9853 16.1342L20.2405 18.4809C20.2671 18.7185 20.2398 18.959 20.1608 19.1846C20.0817 19.4103 19.9529 19.6152 19.7838 19.7842C19.6148 19.9533 19.4099 20.0821 19.1842 20.1612C18.9586 20.2402 18.7181 20.2675 18.4805 20.2409L16.1338 19.9857C15.8679 19.9568 15.5989 19.9954 15.3518 20.0979C15.1046 20.2004 14.8873 20.3636 14.72 20.5723L13.2474 22.4047C13.0982 22.5905 12.9091 22.7405 12.6942 22.8435C12.4793 22.9465 12.244 23 12.0057 23C11.7673 23 11.532 22.9465 11.3171 22.8435C11.1022 22.7405 10.9132 22.5905 10.7639 22.4047L9.28648 20.5665C9.11883 20.3578 8.90136 20.1947 8.6541 20.0922C8.40684 19.9897 8.13775 19.951 7.87164 19.9798L5.52498 20.235C5.28735 20.2618 5.04674 20.2347 4.82103 20.1557C4.59532 20.0767 4.3903 19.9479 4.22121 19.7788C4.05212 19.6097 3.9233 19.4047 3.84432 19.179C3.76533 18.9533 3.73822 18.7127 3.76498 18.475L4.02018 16.1284C4.04899 15.8622 4.01035 15.5932 3.90782 15.3459C3.8053 15.0986 3.64219 14.8812 3.43352 14.7135L1.5953 13.2361C1.40949 13.0868 1.25954 12.8978 1.15652 12.6829C1.05349 12.468 1 12.2327 1 11.9943C1 11.756 1.05349 11.5207 1.15652 11.3058C1.25954 11.0909 1.40949 10.9018 1.5953 10.7526L3.43352 9.27416C3.64225 9.10679 3.80542 8.8895 3.90796 8.64238C4.0105 8.39526 4.04909 8.12628 4.02018 7.8603L3.76498 5.51364C3.73841 5.27605 3.76565 5.03553 3.8447 4.8099C3.92375 4.58428 4.05258 4.37934 4.22163 4.21029C4.39068 4.04124 4.59561 3.91242 4.82124 3.83336C5.04686 3.75431 5.28739 3.72707 5.52498 3.75365L7.87164 4.00884C8.13775 4.03756 8.4068 3.99888 8.65405 3.89636C8.90129 3.79384 9.11877 3.63078 9.28648 3.42218L10.7639 1.59472Z" stroke="#47CD70" stroke-width="1.5" stroke-linecap="round" stroke-linejoin="round"/>
<path d="M15.6732 9.80029L11.7806 14.9903C11.7176 15.0743 11.6372 15.1438 11.545 15.194C11.4527 15.2442 11.3508 15.274 11.246 15.2815C11.1413 15.2889 11.0361 15.2737 10.9378 15.237C10.8394 15.2002 10.75 15.1428 10.6757 15.0685L8.33984 12.7336" stroke="#47CD70" stroke-width="1.5" stroke-linecap="round" stroke-linejoin="round"/>
</svg>
