<svg width="92" height="72" viewBox="0 0 92 72" fill="none" xmlns="http://www.w3.org/2000/svg">
<path d="M2 40.7688L13.4667 46.5744" stroke="#47CD70" stroke-width="3" stroke-linecap="round" stroke-linejoin="round"/>
<path d="M2.36719 25.1989L13.3459 31.0786" stroke="#47CD70" stroke-width="3" stroke-linecap="round" stroke-linejoin="round"/>
<path d="M6.99219 12.2524L13.5864 16.3168" stroke="#47CD70" stroke-width="3" stroke-linecap="round" stroke-linejoin="round"/>
<path d="M41.4043 9.25781L73.6143 25.7142" stroke="#47CD70" stroke-width="3" stroke-linecap="round" stroke-linejoin="round"/>
<path d="M53.9111 2.86659L29.7517 15.2118C28.4047 15.9105 27.2766 16.9672 26.4913 18.2656C25.7061 19.564 25.2942 21.0539 25.3009 22.5713V49.4285C25.2945 50.9463 25.707 52.4365 26.493 53.7349C27.279 55.0334 28.4079 56.0898 29.7556 56.788L53.9111 69.1293C55.0257 69.7008 56.2602 69.9988 57.5128 69.9988C58.7653 69.9988 59.9999 69.7008 61.1144 69.1293L85.27 56.788C86.6172 56.0897 87.7456 55.033 88.5309 53.7345C89.3162 52.436 89.7279 50.946 89.7208 49.4285V22.5713C89.7284 21.0537 89.3168 19.5635 88.5315 18.2649C87.7461 16.9663 86.6175 15.9098 85.27 15.2118L61.1144 2.86659C59.9993 2.29699 58.765 2 57.5128 2C56.2606 2 55.0263 2.29699 53.9111 2.86659V2.86659Z" stroke="#47CD70" stroke-width="3" stroke-linecap="round" stroke-linejoin="round"/>
<path d="M88.4486 18.136L57.5114 33.9403L26.5781 18.136" stroke="#47CD70" stroke-width="3" stroke-linecap="round" stroke-linejoin="round"/>
<path d="M57.5098 33.9404V70" stroke="#47CD70" stroke-width="3" stroke-linecap="round" stroke-linejoin="round"/>
<path d="M73.6152 25.7142V37.0834" stroke="#47CD70" stroke-width="3" stroke-linecap="round" stroke-linejoin="round"/>
</svg>
