<svg width="72" height="72" viewBox="0 0 72 72" fill="none" xmlns="http://www.w3.org/2000/svg">
<path d="M51.8677 69.9999C61.8825 69.9999 70.001 61.8814 70.001 51.8666C70.001 41.8518 61.8825 33.7333 51.8677 33.7333C41.8529 33.7333 33.7344 41.8518 33.7344 51.8666C33.7344 61.8814 41.8529 69.9999 51.8677 69.9999Z" stroke="#47CD70" stroke-width="3" stroke-linecap="round" stroke-linejoin="round"/>
<path d="M59.9487 46.5958L51.1691 58.3009C50.9741 58.5602 50.7258 58.7748 50.4408 58.93C50.1559 59.0852 49.841 59.1776 49.5173 59.2008C49.1937 59.224 48.8688 59.1775 48.5646 59.0645C48.2605 58.9515 47.984 58.7746 47.754 58.5457L43.2207 54.0124" stroke="#47CD70" stroke-width="3" stroke-linecap="round" stroke-linejoin="round"/>
<path d="M60.9333 24.6667V6.53333C60.9333 5.33102 60.4557 4.17795 59.6055 3.32778C58.7554 2.47762 57.6023 2 56.4 2H6.53333C5.33102 2 4.17795 2.47762 3.32778 3.32778C2.47762 4.17795 2 5.33102 2 6.53333V42.8C2 44.0023 2.47762 45.1554 3.32778 46.0055C4.17795 46.8557 5.33102 47.3333 6.53333 47.3333H24.6667" stroke="#47CD70" stroke-width="3" stroke-linecap="round" stroke-linejoin="round"/>
<path d="M2 15.6H60.9333" stroke="#47CD70" stroke-width="3" stroke-linecap="round" stroke-linejoin="round"/>
<path d="M11.0664 26.9333H29.1997" stroke="#47CD70" stroke-width="3" stroke-linecap="round" stroke-linejoin="round"/>
<path d="M11.0664 36H20.1331" stroke="#47CD70" stroke-width="3" stroke-linecap="round" stroke-linejoin="round"/>
</svg>
